<svg preserveAspectRatio="none" width="100%" height="100%" overflow="visible" style="display: block;" viewBox="0 0 64.6026 65.059" fill="none" xmlns="http://www.w3.org/2000/svg">
<g id="Group 33">
<path id="Vector 106" d="M23.5411 12.3276C23.481 12.4595 23.3709 12.5621 23.2351 12.6128C23.0993 12.6635 22.9489 12.6582 22.8171 12.5981C22.6852 12.538 22.5826 12.4279 22.5319 12.2921C22.4811 12.1563 22.4864 12.0059 22.5465 11.8741C22.5465 11.8741 22.5465 11.8741 22.5465 11.8741C23.0762 10.7782 23.4907 9.68256 24.4562 8.63209C24.4562 8.63208 24.4562 8.63207 24.4562 8.63206C25.9607 7.54318 27.2959 7.09054 28.7445 6.62649C28.98 6.56127 29.2173 6.5056 29.4573 6.46221C29.4596 6.46179 29.4619 6.46137 29.4643 6.46096C32.5984 5.91805 35.6596 6.34455 38.5431 6.76034C38.5476 6.761 38.552 6.76166 38.5565 6.76233C41.6996 7.33227 44.0293 8.88594 46.3792 10.2778C46.3839 10.2807 46.3885 10.2835 46.3931 10.2864C48.3224 11.4408 49.9168 13.1609 51.1847 14.7961C51.1878 14.8 51.1909 14.8039 51.194 14.8078C52.2806 16.2179 52.9608 17.677 53.7517 19.0776C53.7536 19.081 53.7555 19.0844 53.7575 19.0879C55.0971 21.5153 56.3297 23.9919 57.1619 26.7629C57.1627 26.7658 57.1635 26.7687 57.1644 26.7716C57.5468 28.0891 57.4924 29.3685 57.5291 30.5489C57.5291 30.5508 57.5292 30.5527 57.5292 30.5546C57.5706 32.6598 57.5155 34.7059 57.4153 36.7932C57.4153 36.7941 57.4152 36.795 57.4152 36.7958C57.2705 39.6604 56.3392 42.328 55.3476 44.7947C55.3474 44.7953 55.3472 44.7958 55.3469 44.7964C54.1084 47.5648 52.0575 49.1392 50.327 50.9177C50.3243 50.9203 50.3216 50.923 50.3189 50.9257C48.0142 53.1772 45.2743 54.7959 42.5586 56.2131C42.5557 56.2146 42.5528 56.2161 42.5499 56.2176C40.13 57.5262 37.2424 58.2386 34.7144 58.3081C34.7061 58.3085 34.6979 58.3088 34.6896 58.3092C32.6154 58.3946 30.6656 58.0498 28.8133 57.6261C28.8067 57.6246 28.8 57.623 28.7934 57.6215C25.9325 56.9349 23.2531 56.0613 20.5443 55.0983C20.5392 55.0964 20.534 55.0945 20.5289 55.0927C19.838 54.8399 19.121 54.6487 18.3123 54.3396C17.5015 54.0429 16.6052 53.4945 15.9981 53.0023C15.9953 53.0002 15.9926 52.998 15.9898 52.9958C14.4955 51.7963 13.1736 50.5984 11.9798 49.1627C11.9782 49.1607 11.9767 49.1588 11.9751 49.1569C10.4102 47.2389 8.97514 45.1774 7.93861 42.6934C7.93681 42.689 7.93502 42.6846 7.93324 42.6802C7.18203 40.1785 7.54597 39.0994 7.56972 37.5493C7.66451 36.0942 7.79337 34.6843 7.83495 33.2736C7.83515 33.267 7.83535 33.2604 7.83555 33.2539C7.84916 32.4772 7.92546 31.3293 8.23997 30.381C8.53483 29.4458 8.86551 28.7241 9.2047 28.0068C9.20597 28.0042 9.20723 28.0016 9.20849 27.9989C10.5927 25.158 12.028 22.4613 13.5205 19.7237C13.5211 19.7226 13.5218 19.7214 13.5224 19.7203C14.3696 18.1573 15.517 16.2999 16.8593 14.986C16.8605 14.9847 16.8617 14.9834 16.8629 14.9821C18.2777 13.4694 19.8744 12.0027 21.5125 10.6545C21.7067 10.4941 21.9002 10.3364 22.0966 10.1777L22.199 10.0898C22.1998 10.0892 22.2006 10.0886 22.2015 10.088C23.8479 8.91206 26.0102 8.75487 27.7912 8.39951C27.7912 8.3995 27.7912 8.3995 27.7913 8.39949L27.8266 8.38549C28.4845 8.27794 29.1668 8.19956 29.7829 8.23466C29.8606 8.2379 29.9384 8.27508 29.9987 8.33177C30.059 8.38883 30.0969 8.46076 30.1045 8.53795C30.1121 8.61514 30.0891 8.69308 30.0411 8.76084C29.9931 8.82823 29.924 8.87992 29.8484 8.8983C29.8484 8.8983 29.8484 8.8983 29.8484 8.8983C29.2465 9.0345 28.7158 9.17555 28.2245 9.4937L28.2599 9.4797C28.2598 9.47971 28.2598 9.47972 28.2598 9.47974C26.7738 10.5285 25.7735 12.0767 24.6489 13.1434C24.6483 13.1439 24.6477 13.1445 24.6471 13.145L24.7494 13.0571C24.584 13.2318 24.4213 13.4052 24.2577 13.5806C22.8684 15.0678 21.5556 16.5681 20.138 18.0831C20.1366 18.0845 20.1353 18.0859 20.1341 18.0873C18.9797 19.2348 18.2355 20.3637 17.3977 21.86C17.3971 21.8611 17.3965 21.8621 17.396 21.8631C15.9411 24.5074 14.4878 27.2408 13.1747 29.9126C13.1735 29.915 13.1723 29.9175 13.1712 29.9199C12.8502 30.5835 12.517 31.2352 12.3196 31.7471C12.1258 32.2424 12.0623 32.6343 12.0393 33.3808C12.0391 33.3865 12.0389 33.3922 12.0388 33.3979C11.9983 34.8105 12.0324 36.2187 12.1004 37.5885C12.1352 38.2697 12.1787 38.9452 12.2386 39.5712C12.2687 39.8832 12.3037 40.184 12.3446 40.4379C12.3794 40.6821 12.4544 40.9336 12.4324 40.8583C12.4321 40.8577 12.4319 40.8571 12.4317 40.8565C13.1744 42.6532 14.3556 44.4746 15.686 46.1628C15.6873 46.1645 15.6887 46.1662 15.69 46.1679C16.6758 47.4096 17.6963 48.7646 18.7634 49.8822C18.7653 49.8842 18.7672 49.8862 18.7691 49.8881C19.2201 50.3526 19.4862 50.6539 19.964 50.9713C20.4381 51.2864 21.0624 51.5876 21.712 51.8236C21.7169 51.8254 21.7218 51.8271 21.7267 51.8289C24.3061 52.7497 26.9794 53.6148 29.5816 54.2389C29.5875 54.2402 29.5935 54.2416 29.5995 54.243C31.297 54.6357 32.9812 54.9169 34.5597 54.8651C34.5661 54.8649 34.5725 54.8647 34.5789 54.8645C37.053 54.8173 39.2925 54.888 41.3645 53.8671C41.3669 53.8659 41.3693 53.8647 41.3718 53.8636C44.0251 52.5687 46.5514 51.0946 48.5883 49.1393C48.5907 49.137 48.5931 49.1347 48.5955 49.1324C50.354 47.4107 52.2957 45.7117 53.0891 43.8742C53.0892 43.8738 53.0894 43.8734 53.0895 43.8731C54.082 41.4753 54.9708 39.0983 55.09 36.6734C55.09 36.6727 55.0901 36.6719 55.0901 36.6712C55.1867 34.6723 55.204 32.6185 55.1319 30.6336C55.1319 30.6318 55.1318 30.6301 55.1317 30.6283C55.0807 29.4871 54.9216 28.4176 54.6468 27.4954C54.6462 27.4932 54.6455 27.491 54.6449 27.4888C53.924 25.0743 52.7715 22.6523 51.4954 20.3491C51.4936 20.3458 51.4917 20.3425 51.4899 20.3392C50.7231 18.9748 49.8572 17.6435 48.9988 16.538C48.9964 16.535 48.9941 16.532 48.9917 16.529C47.7549 14.9445 46.5142 13.6191 44.927 12.6521C44.9232 12.6497 44.9193 12.6473 44.9155 12.6449C42.67 11.2717 40.3434 9.81013 38.1408 9.39324C38.1377 9.39272 38.1347 9.3922 38.1316 9.39169C35.2791 8.91277 32.4813 8.47096 29.8269 8.80318C29.8249 8.80343 29.8229 8.80368 29.8209 8.80393C29.5889 8.83386 29.357 8.85404 29.1252 8.86817C27.7712 8.96366 26.067 8.78577 25.2138 9.42C25.2138 9.42 25.2138 9.42001 25.2138 9.42002C24.5487 10.1247 24.0306 11.2821 23.5411 12.3276Z" fill="var(--stroke-0, #DAE562)"/>
<path id="Vector 123" d="M24.7005 27.9212C25.2023 28.0778 25.8909 28.3287 26.7408 28.4712C27.2965 28.5643 27.8115 28.3627 28.2034 28.0184C28.4086 27.7986 28.6265 27.4873 28.7854 27.2647C28.9444 27.0421 29.0377 26.9176 29.2283 26.6006" stroke="var(--stroke-0, #DAE562)" stroke-width="2" stroke-linecap="round"/>
<path id="Vector 124" d="M37.6208 27.6357C37.9019 27.6357 38.5302 27.8225 39.8635 28.1847C40.4128 28.334 41.0129 28.3904 41.7034 28.3125C42.7343 28.1964 42.9334 27.3867 43.107 26.9768C43.1542 26.882 43.2164 26.7887 43.2641 26.6939C43.3117 26.5991 43.3428 26.5057 43.3749 26.2208" stroke="var(--stroke-0, #DAE562)" stroke-width="2" stroke-linecap="round"/>
<path id="Vector 125" d="M27.6509 40.3067C27.7269 40.3263 29.2219 41.1334 31.5417 42.3704C33.2887 43.3019 34.8419 42.8888 36.8372 42.1965C38.3996 41.6545 38.8807 41.0422 39.3802 40.6184C39.6825 40.3158 39.959 40.0442 40.1928 39.8501C40.3199 39.7548 40.4645 39.6659 40.6135 39.5743" stroke="var(--stroke-0, #DAE562)" stroke-width="2" stroke-linecap="round"/>
</g>
</svg>
