<svg width="16" height="16" viewBox="0 0 16 16" fill="none" xmlns="http://www.w3.org/2000/svg">
<path d="M7.61886 11.8417H2.28553C1.88139 11.8417 1.4938 11.6753 1.20803 11.3792C0.922262 11.0831 0.761719 10.6815 0.761719 10.2627V2.36801C0.761719 1.94925 0.922262 1.54764 1.20803 1.25153C1.4938 0.955415 1.88139 0.789063 2.28553 0.789062H12.9522C13.3563 0.789063 13.7439 0.955415 14.0297 1.25153C14.3155 1.54764 14.476 1.94925 14.476 2.36801V6.71012M12.9522 14.2101V9.47327M12.9522 9.47327L15.2379 11.8417M12.9522 9.47327L10.6665 11.8417" stroke="#19083B" stroke-width="1.5" stroke-linecap="round" stroke-linejoin="round"/>
<path d="M0.761719 2.36798L7.61886 7.10482L14.476 2.36798" stroke="#19083B" stroke-width="1.5" stroke-linecap="round" stroke-linejoin="round"/>
</svg>
